<svg class="nav-item iconsvg" viewBox="0 0 1024 1024"><path d="M409.428572 256C324.662098 256 256 326.336783 256 412.390244 256 498.636977 324.579452 568.780488 409.428572 568.780488 494.2822 568.780488 562.857143 498.639005 562.857143 412.390244 562.857143 326.33475 494.199557 256 409.428572 256ZM699.680381 861.129366 699.680381 829.129366 699.680381 746.202536C699.680381 642.482227 537.468289 576 397.843428 576 258.2168 576 96 642.482242 96 746.202536L96 829.129366 96 861.129366 128 861.129366 667.680381 861.129366 699.680381 861.129366ZM704 512 928 512M768 640 928 640M800 768 928 768"></path></svg>
