<svg class="nav-item iconsvg" viewBox="0 0 1024 1024"><path d="m-92.032 435.712M408.746667 597.333333c0.042667-0.490667 0-0.704-0.085334-0.746666L112.490667 736.128l-4.736 2.389333c-33.834667 18.517333-54.421333 53.162667-54.421334 90.88v10.752l0.128 4.522667C56.384 891.84 94.72 928 141.184 928h741.632a87.850667 87.850667 0 0 0 87.850667-87.850667v-10.752a103.104 103.104 0 0 0-59.157334-93.269333L615.701333 596.693333a1.024 1.024 0 0 1-0.597333-0.938666v-6.016c0-0.96 0.384-1.877333 1.066667-2.56l42.794666-42.005334a209.770667 209.770667 0 0 0 62.805334-149.674666v-96.469334A203.050667 203.050667 0 0 0 518.72 96h-13.44l-5.824 0.085333c-109.973333 3.370667-197.226667 93.184-197.226667 202.965334v96.469333l0.106667 7.061333a210.112 210.112 0 0 0 62.698667 142.613334l42.794666 42.026666 1.28 1.472c-0.512-0.576-0.213333 0.213333-0.213333 1.066667v6.016z"></path></svg>